<?xml version="1.0" encoding="UTF-8" standalone="no"?>
<!-- Created with Inkscape (http://www.inkscape.org/) -->

<svg
   version="1.1"
   id="svg1"
   width="1689.3333"
   height="340.31467"
   viewBox="0 0 1689.3333 340.31467"
   sodipodi:docname="prisma-primary.ai"
   xmlns:inkscape="http://www.inkscape.org/namespaces/inkscape"
   xmlns:sodipodi="http://sodipodi.sourceforge.net/DTD/sodipodi-0.dtd"
   xmlns="http://www.w3.org/2000/svg"
   xmlns:svg="http://www.w3.org/2000/svg">
  <defs
     id="defs1">
    <clipPath
       clipPathUnits="userSpaceOnUse"
       id="clipPath2">
      <path
         d="M 0,255.236 H 1267 V 0 H 0 Z"
         transform="translate(-1211.1096,-106.1448)"
         id="path2" />
    </clipPath>
    <clipPath
       clipPathUnits="userSpaceOnUse"
       id="clipPath4">
      <path
         d="M 0,255.236 H 1267 V 0 H 0 Z"
         transform="translate(-1249.7268,-194.1023)"
         id="path4" />
    </clipPath>
    <clipPath
       clipPathUnits="userSpaceOnUse"
       id="clipPath6">
      <path
         d="M 0,255.236 H 1267 V 0 H 0 Z"
         transform="translate(-1252.2297,-177.761)"
         id="path6" />
    </clipPath>
    <clipPath
       clipPathUnits="userSpaceOnUse"
       id="clipPath8">
      <path
         d="M 0,255.236 H 1267 V 0 H 0 Z"
         transform="translate(-127.6017,-85.071105)"
         id="path8" />
    </clipPath>
    <clipPath
       clipPathUnits="userSpaceOnUse"
       id="clipPath10">
      <path
         d="M 0,255.236 H 1267 V 0 H 0 Z"
         transform="translate(-127.593,-203.2332)"
         id="path10" />
    </clipPath>
    <clipPath
       clipPathUnits="userSpaceOnUse"
       id="clipPath12">
      <path
         d="M 0,255.236 H 1267 V 0 H 0 Z"
         transform="translate(-795.31172,-14.888)"
         id="path12" />
    </clipPath>
  </defs>
  <sodipodi:namedview
     id="namedview1"
     pagecolor="#ffffff"
     bordercolor="#000000"
     borderopacity="0.25"
     inkscape:showpageshadow="2"
     inkscape:pageopacity="0.0"
     inkscape:pagecheckerboard="0"
     inkscape:deskcolor="#d1d1d1">
    <inkscape:page
       x="0"
       y="0"
       inkscape:label="1"
       id="page1"
       width="1689.3333"
       height="340.31467"
       margin="0 1.04 0 0"
       bleed="0" />
  </sodipodi:namedview>
  <g
     id="layer-MC0"
     inkscape:groupmode="layer"
     inkscape:label="Layer 1">
    <path
       id="path1"
       d="M 0,0 10.439,-21.075 H 43.74 L -16.47,97.581 H -50.12 L -110.16,-21.075 H -78.1 L -67.66,0 Z m -57.03,21.605 23.02,46.931 h 0.36 l 23.02,-46.931 z m -227.472,75.269 h -44.983 V -21.075 h 28.513 v 88.017 h 0.354 l 45.516,-88.193 h 21.958 l 45.514,88.193 h 0.361 v -88.017 h 30.459 V 96.874 h -44.99 l -40.906,-80.228 h -0.533 z m -272.036,0 h -30.991 V -21.074 h 30.991 z M -743.377,-21.075 v 40.379 h 32.409 l 34.18,-40.379 h 35.244 l -36.838,42.68 c 18.417,4.959 30.992,17.533 30.992,36.661 0,24.262 -17.176,38.608 -49.586,38.608 h -77.215 V -21.075 Z m 0,63.224 v 30.993 h 40.379 c 17.357,0 24.44,-5.49 24.44,-15.407 0,-10.45 -8.676,-15.586 -25.857,-15.586 z m -133.705,54.725 h -68.006 V -21.075 h 30.816 v 37.014 h 35.596 c 32.409,0 52.778,15.053 52.778,40.91 0,24.439 -18.42,40.025 -51.184,40.025 m -37.19,-57.202 v 33.293 h 32.586 c 17.886,0 25.15,-6.73 25.15,-16.647 0,-10.274 -6.554,-16.646 -26.567,-16.646 z m 479.129,11.045 c 38.833,-5.545 56.952,-13.719 56.952,-36.557 0,-23.344 -27.085,-37.535 -62.178,-37.535 -20.883,0 -39.17,3.91 -55.316,10.45 -0.81,0.32 -1.939,0.808 -3.069,1.298 v 27.169 c 3.877,-2.074 8.512,-4.214 12.034,-5.629 14.243,-5.765 30.845,-9.624 44.885,-9.624 21.709,0 31.501,4.887 31.501,12.404 0,6.692 -6.539,9.624 -33.288,13.383 -38.022,5.377 -57.289,13.534 -57.289,36.389 0,20.563 23.833,36.71 59.886,36.71 20.242,0 35.579,-3.253 50.108,-9.456 0.219,-0.084 0.44,-0.168 0.657,-0.269 V 62.297 c -3.101,1.466 -6.202,2.933 -9.639,4.247 -13.216,5.377 -28.233,8.967 -42.744,8.967 -18.44,0 -26.278,-5.208 -26.278,-11.411 0,-6.202 6.034,-9.304 33.778,-13.383"
       style="fill:#000000;fill-opacity:1;fill-rule:nonzero;stroke:none"
       transform="matrix(1.3333333,0,0,-1.3333333,1614.8127,198.78827)"
       clip-path="url(#clipPath2)" />
    <path
       id="path3"
       d="m 0,0 h 3.092 c 1.766,0 2.503,-0.589 2.503,-1.914 v -0.147 c 0,-1.178 -0.737,-1.914 -2.503,-1.914 l -3.092,0 z m 8.392,-2.208 v 0.441 c 0,2.503 -1.914,4.27 -5.3,4.27 H -2.796 V -11.041 H 0 v 4.563 h 3.11 l 2.337,-4.563 H 8.54 l -2.877,5.359 c 1.753,0.53 2.729,1.837 2.729,3.474"
       style="fill:#000000;fill-opacity:1;fill-rule:nonzero;stroke:none"
       transform="matrix(1.3333333,0,0,-1.3333333,1666.3023,81.5116)"
       clip-path="url(#clipPath4)" />
    <path
       id="path5"
       d="m 0,0 c -6.919,0 -11.925,5.005 -11.925,12.072 0,7.066 5.006,12.072 11.925,12.072 6.92,0 11.925,-5.006 11.925,-12.072 C 11.925,5.005 6.92,0 0,0 m 0,26.058 c -7.949,0 -13.985,-6.036 -13.985,-13.986 0,-7.95 6.036,-13.986 13.985,-13.986 7.949,0 13.986,6.036 13.986,13.986 0,7.95 -6.037,13.986 -13.986,13.986"
       style="fill:#000000;fill-opacity:1;fill-rule:nonzero;stroke:none"
       transform="matrix(1.3333333,0,0,-1.3333333,1669.6395,103.3)"
       clip-path="url(#clipPath6)" />
    <path
       id="path7"
       d="M 0,0 V 118.161 L 61.735,0 Z"
       style="fill:#00c0e8;fill-opacity:1;fill-rule:nonzero;stroke:none"
       transform="matrix(1.3333333,0,0,-1.3333333,170.1356,226.88653)"
       clip-path="url(#clipPath8)" />
    <path
       id="path9"
       d="M 0,0 -61.727,-118.163 H 0 v -85.07 L -127.593,-75.615 -62.339,-10.336 -51.978,0 0,52.002 Z"
       style="fill:#00c0e8;fill-opacity:1;fill-rule:nonzero;stroke:none"
       transform="matrix(1.3333333,0,0,-1.3333333,170.124,69.337067)"
       clip-path="url(#clipPath10)" />
    <path
       id="path11"
       d="M 0,0 V 6.114 H 0.033 C 3.758,4.235 7.388,3.311 10.541,3.311 c 2.388,0 3.599,0.573 3.599,1.689 0,1.114 -0.797,1.401 -5.573,2.165 -5.223,0.828 -8.694,2.388 -8.694,6.879 0,4.172 3.662,7.387 10.828,7.387 2.866,0 5.859,-0.604 8.629,-1.783 v -6.051 l -0.032,-0.031 c -2.642,1.528 -6.21,2.484 -9.075,2.484 -2.548,0 -3.567,-0.605 -3.567,-1.625 0,-1.305 1.56,-1.432 5.477,-2.101 5.223,-0.892 8.694,-2.357 8.694,-7.069 0,-3.664 -2.739,-7.326 -10.604,-7.326 C 6.337,-2.071 3.248,-1.274 0,0 m -28.512,20.827 h 6.687 V 12.61 h 2.738 l 6.529,8.217 h 7.515 l 0.033,-0.032 -8.536,-10.668 9.013,-11.56 -0.032,-0.032 h -7.802 l -6.751,8.566 h -2.707 v -8.566 h -6.687 z m -28.704,0 h 12.992 c 5.924,0 8.821,-2.803 8.821,-7.993 0,-3.568 -1.465,-5.988 -4.331,-7.134 l 5.287,-7.165 h -7.58 l -4.107,5.859 h -4.395 v -5.859 h -6.687 z m 12.132,-11.21 c 2.23,0 3.026,1.242 3.026,2.93 0,1.687 -0.796,2.898 -3.026,2.898 h -5.445 V 9.617 Z M -89.392,9.68 c 0,7.261 4.935,11.815 12.738,11.815 7.802,0 12.738,-4.554 12.738,-11.815 0,-7.26 -4.936,-11.814 -12.738,-11.814 -7.803,0 -12.738,4.554 -12.738,11.814 m 18.82,0 c 0,3.854 -2.228,6.147 -6.082,6.147 -3.853,0 -6.083,-2.293 -6.083,-6.147 0,-3.852 2.23,-6.145 6.051,-6.145 3.853,0 6.114,2.293 6.114,6.145 m -60.898,11.147 h 7.132 l 3.631,-15.478 h 0.352 l 4.712,15.478 h 6.528 l 4.617,-15.478 h 0.352 l 3.565,15.478 h 6.815 l -5.86,-22.292 h -8.756 l -4.077,13.438 h -0.191 l -4.14,-13.438 h -8.789 z m -19.374,-5.733 h -7.802 l 0.254,5.733 h 21.814 l 0.255,-5.733 h -7.803 V -1.465 h -6.718 z m -33.162,5.733 h 19.489 l 0.255,-5.414 h -13.089 v -3.058 h 10.287 V 7.42 h -10.287 V 3.949 h 13.471 l -0.255,-5.414 h -19.871 z m -30.933,0 h 6.942 l 9.585,-12.643 h 0.095 v 12.643 h 6.37 V -1.465 h -6.72 l -9.809,12.961 h -0.094 V -1.465 h -6.369 z M -259.308,9.68 c 0,7.261 4.936,11.815 12.738,11.815 7.802,0 12.739,-4.554 12.739,-11.815 0,-7.26 -4.937,-11.814 -12.739,-11.814 -7.802,0 -12.738,4.554 -12.738,11.814 m 18.821,0 c 0,3.854 -2.229,6.147 -6.083,6.147 -3.853,0 -6.083,-2.293 -6.083,-6.147 0,-3.852 2.23,-6.145 6.051,-6.145 3.854,0 6.115,2.293 6.115,6.145 m -37.717,5.414 h -7.803 l 0.255,5.733 h 21.815 l 0.254,-5.733 h -7.803 V -1.465 h -6.718 z m -27.845,5.733 h 6.689 V 4.299 h 11.813 l -0.255,-5.764 h -18.247 z m -24.374,0 h 10.764 l 7.738,-22.292 h -7.006 l -1.559,4.617 h -9.204 l -1.592,-4.617 h -6.879 z m 2.357,-12.675 h 5.987 l -2.389,7.006 h -1.21 z m -52.393,1.528 c 0,7.261 4.936,11.815 12.738,11.815 7.802,0 12.739,-4.554 12.739,-11.815 0,-7.26 -4.937,-11.814 -12.739,-11.814 -7.802,0 -12.738,4.554 -12.738,11.814 m 18.82,0 c 0,3.854 -2.228,6.147 -6.082,6.147 -3.853,0 -6.083,-2.293 -6.083,-6.147 0,-3.852 2.23,-6.145 6.051,-6.145 3.854,0 6.114,2.293 6.114,6.145 m -41.697,11.147 h 6.688 V 4.299 h 11.814 l -0.255,-5.764 h -18.247 z m -24.374,0 h 10.765 l 7.737,-22.292 h -7.006 l -1.56,4.617 h -9.204 l -1.591,-4.617 h -6.878 z m 2.356,-12.675 h 5.988 l -2.389,7.006 h -1.21 z m -34.722,12.675 h 13.151 c 5.479,0 8.376,-3.153 8.376,-8.312 0,-5.828 -3.726,-8.503 -8.885,-8.503 h -5.955 v -5.477 h -6.687 z m 11.973,-11.561 c 2.071,0 2.962,1.338 2.962,3.089 0,2.007 -0.987,3.09 -3.025,3.09 h -5.223 V 9.266 Z m -45.865,-3.598 -9.776,15.159 h 7.515 l 5.51,-8.885 h 0.319 l 5.572,8.885 h 7.325 L -487.248,5.7 v -7.165 h -6.72 z m -35.391,15.159 h 14.044 c 4.648,0 7.452,-1.911 7.452,-5.606 0,-2.483 -0.989,-4.235 -3.759,-5.127 2.866,-1.146 4.235,-2.642 4.235,-5.286 0,-4.617 -3.534,-6.273 -8.437,-6.273 h -13.535 z M -517.1,11.91 c 1.848,0 2.613,0.573 2.613,2.006 0,1.338 -0.828,1.911 -2.613,1.911 h -5.668 V 11.91 Z m 0.321,-8.312 c 1.972,0 2.737,0.637 2.737,2.102 0,1.369 -0.765,2.07 -2.737,2.07 h -5.989 V 3.566 Z"
       style="fill:#807c7b;fill-opacity:1;fill-rule:nonzero;stroke:none"
       transform="matrix(1.3333333,0,0,-1.3333333,1060.4156,320.464)"
       clip-path="url(#clipPath12)" />
  </g>
</svg>
